<?xml version="1.0" standalone="no"?>
<!DOCTYPE svg PUBLIC "-//W3C//DTD SVG 20010904//EN"
 "http://www.w3.org/TR/2001/REC-SVG-20010904/DTD/svg10.dtd">
<svg version="1.0" xmlns="http://www.w3.org/2000/svg"
 width="844.000000pt" height="295.000000pt" viewBox="0 0 844.000000 295.000000"
 preserveAspectRatio="xMidYMid meet">

<g transform="translate(0.000000,295.000000) scale(0.100000,-0.100000)"
fill="#8D6CBA" stroke="none">
<path d="M2 1472 c-1 -959 2 -1472 8 -1472 6 0 10 86 10 230 l0 230 28 11 c15
5 99 45 187 89 347 171 619 242 865 225 58 -4 168 -18 245 -31 396 -70 448
-77 602 -76 125 1 230 14 443 53 91 17 217 40 280 51 96 18 155 22 360 22 382
0 493 -22 1320 -264 544 -160 945 -186 1485 -96 352 58 479 66 641 40 133 -21
238 -62 519 -204 431 -219 543 -247 796 -201 137 25 283 81 484 186 l165 86 0
847 -1 847 -216 155 c-423 303 -737 493 -968 585 -38 15 -115 41 -170 58 -94
29 -110 30 -275 31 -165 0 -179 -1 -252 -26 -143 -51 -243 -106 -513 -283
-241 -159 -333 -212 -445 -258 -244 -101 -537 -122 -930 -67 -294 41 -510 62
-675 67 -207 6 -280 0 -570 -47 -502 -81 -625 -72 -1120 85 -197 62 -293 78
-460 78 -137 1 -170 -3 -375 -43 -214 -42 -234 -44 -400 -44 -171 0 -177 0
-275 33 -192 64 -395 180 -652 373 l-132 99 -4 52 c-2 29 -4 -611 -5 -1421z"/>
</g>
</svg>
