<svg id="visual" viewBox="0 0 900 600" width="900" height="600" xmlns="http://www.w3.org/2000/svg" xmlns:xlink="http://www.w3.org/1999/xlink" version="1.1"><rect x="0" y="0" width="900" height="600" fill="#141414"></rect><defs><linearGradient id="grad1_0" x1="33.3%" y1="100%" x2="100%" y2="0%"><stop offset="20%" stop-color="#141414" stop-opacity="1"></stop><stop offset="80%" stop-color="#141414" stop-opacity="1"></stop></linearGradient></defs><defs><linearGradient id="grad2_0" x1="0%" y1="100%" x2="66.7%" y2="0%"><stop offset="20%" stop-color="#141414" stop-opacity="1"></stop><stop offset="80%" stop-color="#141414" stop-opacity="1"></stop></linearGradient></defs><g transform="translate(900, 600)"><path d="M-243.4 0C-229 -22.2 -214.6 -44.4 -206.4 -67.1C-198.2 -89.7 -196.3 -112.9 -187.7 -136.4C-179.1 -159.9 -163.9 -183.7 -143.1 -196.9C-122.2 -210.1 -95.8 -212.8 -71.1 -218.7C-46.3 -224.7 -23.2 -234 0 -243.4L0 0Z" fill="#8d6cba"></path></g><g transform="translate(0, 0)"><path d="M243.4 0C224.6 20 205.8 40 199.7 64.9C193.6 89.7 200.2 119.4 189.3 137.5C178.4 155.6 150 162.1 129.3 178C108.6 193.8 95.5 219 75.2 231.5C54.9 243.9 27.5 243.6 0 243.4L0 0Z" fill="#8d6cba"></path></g></svg>