<svg width="901" height="675" viewBox="0 0 901 675" fill="none" xmlns="http://www.w3.org/2000/svg">
<path d="M0 721L16.7 712.7C33.3 704.3 66.7 687.7 100 685.8C133.3 684 166.7 697 200 698C233.3 699 266.7 688 300 685C333.3 682 366.7 687 400 695.7C433.3 704.3 466.7 716.7 500 723.7C533.3 730.7 566.7 732.3 600 728.2C633.3 724 666.7 714 700 723.2C733.3 732.3 766.7 760.7 800 766C833.3 771.3 866.7 753.7 883.3 744.8L900 736V605H883.3C866.7 605 833.3 605 800 605C766.7 605 733.3 605 700 605C666.7 605 633.3 605 600 605C566.7 605 533.3 605 500 605C466.7 605 433.3 605 400 605C366.7 605 333.3 605 300 605C266.7 605 233.3 605 200 605C166.7 605 133.3 605 100 605C66.7 605 33.3 605 16.7 605H0V721Z" fill="#8D6CBA"/>
<g clip-path="url(#clip0_204_20)">
<path d="M0.174103 464.624L16.8775 477.118C33.4808 489.612 66.8876 514.599 100.194 519.297C133.501 523.894 166.908 508.302 200.215 509.602C233.521 510.901 266.928 529.292 300.235 533.09C333.542 536.888 366.948 526.293 400.255 523.894C433.562 521.595 466.969 527.592 500.275 531.79C533.582 535.888 566.989 538.287 600.296 523.594C633.602 508.902 667.009 477.318 700.316 467.323C733.623 457.328 767.029 468.922 800.336 487.113C833.643 505.304 867.05 529.891 883.653 542.285L900.356 554.579V605.553H883.653C867.05 605.553 833.643 605.553 800.336 605.553C767.029 605.553 733.623 605.553 700.316 605.553C667.009 605.553 633.602 605.553 600.296 605.553C566.989 605.553 533.582 605.553 500.275 605.553C466.969 605.553 433.562 605.553 400.255 605.553C366.948 605.553 333.542 605.553 300.235 605.553C266.928 605.553 233.521 605.553 200.215 605.553C166.908 605.553 133.501 605.553 100.194 605.553C66.8876 605.553 33.4808 605.553 16.8775 605.553H0.174103V464.624Z" fill="#8D6CBA"/>
</g>
<defs>
<clipPath id="clip0_204_20">
<rect width="900.182" height="604.893" fill="white" transform="translate(0.174103 0.660156)"/>
</clipPath>
</defs>
</svg>
