<svg id="visual" viewBox="0 0 900 600" width="900" height="600" xmlns="http://www.w3.org/2000/svg" xmlns:xlink="http://www.w3.org/1999/xlink" version="1.1">
    <path
        d="M0 116L16.7 107.7C33.3 99.3 66.7 82.7 100 80.8C133.3 79 166.7 92 200 93C233.3 94 266.7 83 300 80C333.3 77 366.7 82 400 90.7C433.3 99.3 466.7 111.7 500 118.7C533.3 125.7 566.7 127.3 600 123.2C633.3 119 666.7 109 700 118.2C733.3 127.3 766.7 155.7 800 161C833.3 166.3 866.7 148.7 883.3 139.8L900 131L900 0L883.3 0C866.7 0 833.3 0 800 0C766.7 0 733.3 0 700 0C666.7 0 633.3 0 600 0C566.7 0 533.3 0 500 0C466.7 0 433.3 0 400 0C366.7 0 333.3 0 300 0C266.7 0 233.3 0 200 0C166.7 0 133.3 0 100 0C66.7 0 33.3 0 16.7 0L0 0Z"
        fill="#8d6cba" stroke-linecap="round" stroke-linejoin="miter">
    </path>
</svg>